<?xml version="1.0" encoding="UTF-8" standalone="no"?>
<!DOCTYPE svg PUBLIC "-//W3C//DTD SVG 1.1//EN" "http://www.w3.org/Graphics/SVG/1.1/DTD/svg11.dtd">
<!-- Generated by Microsoft Visio, SVG Export ALZ Repo Wiki Visio.svg Page-1 -->
<svg xmlns="http://www.w3.org/2000/svg" xmlns:xlink="http://www.w3.org/1999/xlink" xmlns:ev="http://www.w3.org/2001/xml-events"
		xmlns:v="http://schemas.microsoft.com/visio/2003/SVGExtensions/" width="1.92797in" height="0.852111in"
		viewBox="0 0 138.814 61.352" xml:space="preserve" color-interpolation-filters="sRGB" class="st15">
	<v:documentProperties v:langID="19465" v:metric="true" v:viewMarkup="false"/>

	<style type="text/css">
	<![CDATA[
		.st1 {fill:#949494;stroke:none;stroke-linecap:butt;stroke-width:0.75}
		.st2 {fill:url(#grad0-7);stroke:none;stroke-linecap:butt;stroke-width:0.75}
		.st3 {fill:url(#grad0-11);stroke:none;stroke-linecap:butt;stroke-width:0.75}
		.st4 {fill:#37c2b1;stroke:none;stroke-linecap:butt;stroke-width:0.75}
		.st5 {fill:#a3a3a3;stroke:none;stroke-linecap:butt;stroke-width:0.75}
		.st6 {fill:none;stroke:none;stroke-linecap:round;stroke-linejoin:round;stroke-width:0.75}
		.st7 {fill:#000000;font-family:Calibri;font-size:1.00001em}
		.st8 {marker-end:url(#mrkr13-38);stroke:#c00000;stroke-linecap:round;stroke-linejoin:round;stroke-width:2.25}
		.st9 {fill:#c00000;fill-opacity:1;stroke:#c00000;stroke-opacity:1;stroke-width:0.47169811320755}
		.st10 {fill:#ffffff;stroke:#000000;stroke-linecap:round;stroke-linejoin:round;stroke-width:0.5}
		.st11 {fill:#ffffff;stroke:none;stroke-linecap:butt;stroke-width:0.75}
		.st12 {fill:#0078d4;stroke:none;stroke-linecap:butt;stroke-width:0.75}
		.st13 {fill:url(#grad0-52);stroke:none;stroke-linecap:butt;stroke-width:0.75}
		.st14 {fill:#4d4d4d;stroke:none;stroke-linecap:butt;stroke-width:0.75}
		.st15 {fill:none;fill-rule:evenodd;font-size:12px;overflow:visible;stroke-linecap:square;stroke-miterlimit:3}
	]]>
	</style>

	<defs id="Patterns_And_Gradients">
		<linearGradient id="grad0-7" x1="0" y1="0" x2="1" y2="0" gradientTransform="rotate(90 0.5 0.5)">
			<stop offset="0" stop-color="#c69aeb" stop-opacity="1"/>
			<stop offset="1" stop-color="#6f4bb2" stop-opacity="1"/>
		</linearGradient>
		<linearGradient id="grad0-11" x1="0" y1="0" x2="1" y2="0" gradientTransform="rotate(90 0.5 0.5)">
			<stop offset="0" stop-color="#54aef0" stop-opacity="1"/>
			<stop offset="1" stop-color="#1988d9" stop-opacity="1"/>
		</linearGradient>
		<linearGradient id="grad0-52" x1="0" y1="0" x2="1" y2="0" gradientTransform="rotate(-90.072226136554 0.5 0.5)">
			<stop offset="0" stop-color="#0078d4" stop-opacity="1"/>
			<stop offset="0.82" stop-color="#5ea0ef" stop-opacity="1"/>
		</linearGradient>
	</defs>
	<defs id="Markers">
		<g id="lend13">
			<path d="M 3 1 L 0 0 L 3 -1 L 3 1 " style="stroke:none"/>
		</g>
		<marker id="mrkr13-38" class="st9" v:arrowType="13" v:arrowSize="2" v:setback="6.36" refX="-6.36" orient="auto"
				markerUnits="strokeWidth" overflow="visible">
			<use xlink:href="#lend13" transform="scale(-2.12,-2.12) "/>
		</marker>
	</defs>
	<g v:mID="0" v:index="1" v:groupContext="foregroundPage">
		<title>Page-1</title>
		<v:pageProperties v:drawingScale="0.0393701" v:pageScale="0.0393701" v:drawingUnits="24" v:shadowOffsetX="8.50394"
				v:shadowOffsetY="-8.50394"/>
		<g id="group1000-1" transform="translate(76.3972,-19.54)" v:mID="1000" v:groupContext="group">
			<title>Management Groups.1392</title>
			<g id="shape1001-2" v:mID="1001" v:groupContext="shape" transform="translate(7.10934,-11.2144)">
				<title>Sheet.1001</title>
				<v:userDefs>
					<v:ud v:nameU="msvDisableCustomConnectionPoints" v:prompt="" v:val="VT0(1):5"/>
				</v:userDefs>
				<path d="M17.68 60.87 L14.86 54.45 L8.87 47.21 L2.84 54.43 L0 60.83 L1 61.31 L3.31 56.1 L5.58 61.31 L6.6 60.85 L3.96
							 54.84 L8.87 48.96 L13.76 54.86 L11.09 60.85 L12.08 61.33 L14.39 56.14 L16.67 61.35 L17.68 60.87 Z"
						class="st1"/>
			</g>
			<g id="shape1002-4" v:mID="1002" v:groupContext="shape" transform="translate(12.803,-21.1903)">
				<title>Sheet.1002</title>
				<v:userDefs>
					<v:ud v:nameU="msvDisableCustomConnectionPoints" v:prompt="" v:val="VT0(1):5"/>
				</v:userDefs>
				<ellipse cx="3.17569" cy="58.0656" rx="3.17569" ry="3.28642" class="st2"/>
			</g>
			<g id="shape1003-8" v:mID="1003" v:groupContext="shape" transform="translate(8.12406,-15.5898)">
				<title>Sheet.1003</title>
				<v:userDefs>
					<v:ud v:nameU="msvDisableCustomConnectionPoints" v:prompt="" v:val="VT0(1):5"/>
				</v:userDefs>
				<path d="M2.22 56.57 A2.3113 2.39189 0 1 1 -0 58.98 A2.3113 2.39189 0 0 1 2.22 56.57 ZM11.09 58.98 A2.29251 2.37245
							 -180 0 0 13.38 61.35 A2.3113 2.39189 -180 1 0 11.09 58.98 Z" class="st3"/>
			</g>
			<g id="group1004-12" transform="translate(5.77517,-9.56147)" v:mID="1004" v:groupContext="group">
				<v:userDefs>
					<v:ud v:nameU="msvDisableCustomConnectionPoints" v:prompt="" v:val="VT0(1):5"/>
				</v:userDefs>
				<title>Sheet.1004</title>
				<g id="shape1005-13" v:mID="1005" v:groupContext="shape" transform="translate(4.04676E-14,-0.0583388)">
					<title>Sheet.1005</title>
					<v:userDefs>
						<v:ud v:nameU="msvDisableCustomConnectionPoints" v:prompt="" v:val="VT0(1):5"/>
					</v:userDefs>
					<ellipse cx="1.82274" cy="59.4657" rx="1.82274" ry="1.88629" class="st4"/>
				</g>
				<g id="shape1006-15" v:mID="1006" v:groupContext="shape" transform="translate(5.59975,-0.0388925)">
					<title>Sheet.1006</title>
					<v:userDefs>
						<v:ud v:nameU="msvDisableCustomConnectionPoints" v:prompt="" v:val="VT0(1):5"/>
					</v:userDefs>
					<ellipse cx="1.82274" cy="59.4657" rx="1.82274" ry="1.88629" class="st4"/>
				</g>
				<g id="group1007-17" transform="translate(11.0867,0)" v:mID="1007" v:groupContext="group">
					<v:userDefs>
						<v:ud v:nameU="msvDisableCustomConnectionPoints" v:prompt="" v:val="VT0(1):5"/>
					</v:userDefs>
					<title>Sheet.1007</title>
					<g id="shape1008-18" v:mID="1008" v:groupContext="shape" transform="translate(4.59632E-14,-0.0194463)">
						<title>Sheet.1008</title>
						<v:userDefs>
							<v:ud v:nameU="msvDisableCustomConnectionPoints" v:prompt="" v:val="VT0(1):5"/>
						</v:userDefs>
						<ellipse cx="1.82274" cy="59.4657" rx="1.82274" ry="1.88629" class="st4"/>
					</g>
					<g id="shape1009-20" v:mID="1009" v:groupContext="shape" transform="translate(5.59975,-1.42109E-14)">
						<title>Sheet.1009</title>
						<v:userDefs>
							<v:ud v:nameU="msvDisableCustomConnectionPoints" v:prompt="" v:val="VT0(1):5"/>
						</v:userDefs>
						<ellipse cx="1.82274" cy="59.4657" rx="1.82274" ry="1.88629" class="st4"/>
					</g>
				</g>
			</g>
			<g id="shape1010-22" v:mID="1010" v:groupContext="shape" transform="translate(0.00630781,-0.162375)">
				<title>Sheet.1010</title>
				<v:userDefs>
					<v:ud v:nameU="msvDisableCustomConnectionPoints" v:prompt="" v:val="VT0(1):5"/>
				</v:userDefs>
				<path d="M0 57.59 a0.300657 0.31114 -180 0 0 0.150329 0.272248 L2.31 59.11 L6.07 61.33 a0.33824 0.350033 -180 0 0
							 0.432195 -0.116678 L7.65 59.11 a0.281866 0.291694 -180 0 0 -0.112747 -0.427818 L3.23 56.02 a0.300657
							 0.31114 0 0 1 -0.150329 -0.272248 L3.08 35.25 a0.300657 0.31114 0 0 1 0.150329 -0.272248 L7.54 32.39
							 a0.281866 0.291694 -180 0 0 0.112747 -0.505603 L6.43 29.73 a0.33824 0.350033 -180 0 0 -0.432195 -0.116678
							 L2.39 31.77 L0.15 33.13 a0.300657 0.31114 -180 0 0 -0.150329 0.272248 L0 57.59 Z" class="st1"/>
			</g>
			<g id="shape1011-24" v:mID="1011" v:groupContext="shape">
				<title>Sheet.1011</title>
				<v:userDefs>
					<v:ud v:nameU="msvDisableCustomConnectionPoints" v:prompt="" v:val="VT0(1):5"/>
				</v:userDefs>
				<path d="M7.65 31.72 L6.43 29.56 a0.33824 0.350033 -180 0 0 -0.319449 -0.15557 L5.96 29.41 L2.36 31.61 L0.12 32.97
							 a0.187911 0.194463 -180 0 0 -0.112747 2.98428E-13 a0.450986 0.466711 -180 0 0 -4.4964E-14 0.15557 L3.09
							 35.07 a0.300657 0.31114 0 0 1 0.150329 -0.272248 L7.54 32.23 a0.281866 0.291694 -180 0 0 0.112747 -0.505603
							 ZM7.65 58.95 L6.43 61.18 a0.33824 0.350033 0 0 1 -0.319449 0.15557 a0.225493 0.233355 0 0 1 -0.150329
							 0 L2.36 59.06 L0.12 57.7 a0.187911 0.194463 0 0 1 -0.112747 7.10543E-15 a0.450986 0.466711 0 0 1 0 -0.15557
							 L3.09 55.6 a0.300657 0.31114 -180 0 0 0.150329 0.272248 L7.54 58.46 a0.300657 0.31114 0 0 1 0.112747
							 0.486157 Z" class="st5"/>
			</g>
			<g id="shape1012-26" v:mID="1012" v:groupContext="shape" transform="translate(24.2643,-0.104036)">
				<title>Sheet.1012</title>
				<v:userDefs>
					<v:ud v:nameU="msvDisableCustomConnectionPoints" v:prompt="" v:val="VT0(1):5"/>
				</v:userDefs>
				<path d="M7.69 33.34 a0.300657 0.31114 -180 0 0 -0.150329 -0.272248 L5.38 31.83 L1.62 29.61 a0.33824 0.350033 -180
							 0 0 -0.432195 0.116678 L0.04 31.83 a0.281866 0.291694 -180 0 0 0.112747 0.427818 L4.45 34.84 a0.300657
							 0.31114 0 0 1 0.150329 0.272248 L4.61 55.69 a0.300657 0.31114 0 0 1 -0.150329 0.272248 L0.15 58.55 a0.281866
							 0.291694 -180 0 0 -0.112747 0.427818 L1.26 61.21 a0.33824 0.350033 -180 0 0 0.432195 0.116678 L5.3 59.17
							 L7.54 57.81 a0.300657 0.31114 -180 0 0 0.150329 -0.272248 L7.69 33.34 Z" class="st1"/>
			</g>
			<g id="shape1013-28" v:mID="1013" v:groupContext="shape" transform="translate(24.2283,-0.0133458)">
				<title>Sheet.1013</title>
				<v:userDefs>
					<v:ud v:nameU="msvDisableCustomConnectionPoints" v:prompt="" v:val="VT0(1):5"/>
				</v:userDefs>
				<path d="M0.07 58.96 L1.3 61.2 a0.33824 0.350033 -180 0 0 0.319449 0.15557 L1.77 61.35 L5.37 59.19 L7.61 57.83 a0.187911
							 0.194463 -180 0 0 0.112747 -7.10543E-15 a0.450986 0.466711 -180 0 0 1.15463E-14 -0.15557 L4.64 55.73
							 a0.300657 0.31114 0 0 1 -0.150329 0.272248 L0.19 58.59 a0.281866 0.291694 -180 0 0 -0.112747 0.369479
							 ZM0.07 31.74 L1.3 29.58 a0.33824 0.350033 0 0 1 0.319449 -0.15557 a0.225493 0.233355 0 0 1 0.150329
							 2.0961E-13 L5.37 31.58 L7.61 32.94 a0.187911 0.194463 0 0 1 0.112747 1.7053E-13 a0.450986 0.466711 0
							 0 1 -1.26121E-13 0.15557 L4.64 35.04 a0.300657 0.31114 -180 0 0 -0.150329 -0.272248 L0.19 32.24 a0.300657
							 0.31114 0 0 1 -0.112747 -0.505603 Z" class="st5"/>
			</g>
		</g>
		<g id="shape1028-30" v:mID="1028" v:groupContext="shape" transform="translate(46.313,-0.375)">
			<title>Sheet.1028</title>
			<desc>Decommissioned</desc>
			<v:textBlock v:margins="rect(4,4,4,4)" v:tabSpace="42.5197"/>
			<v:textRect cx="46.063" cy="52.4991" width="92.13" height="17.7058"/>
			<rect x="0" y="43.6462" width="92.126" height="17.7058" class="st6"/>
			<text x="4.2" y="56.1" class="st7" v:langID="1033"><v:paragraph v:horizAlign="1"/><v:tabList/>Decommissioned</text>		</g>
		<g id="shape1030-33" v:mID="1030" v:groupContext="shape" transform="translate(45.7668,-37.3028)">
			<title>Sheet.1030</title>
			<path d="M0 61.35 L13.52 61.35" class="st8"/>
		</g>
		<g id="shape1031-39" v:mID="1031" v:groupContext="shape" transform="translate(0.25,-14.6846)">
			<title>Sheet.1031</title>
			<ellipse cx="23.2087" cy="38.1433" rx="23.2087" ry="23.2087" class="st10"/>
		</g>
		<g id="group1032-41" transform="translate(14.0689,-15.3021)" v:mID="1032" v:groupContext="group">
			<title>Icon-377PolicySet.1587</title>
			<g id="group1033-42" transform="translate(5.19584E-14,-13.3058)" v:mID="1033" v:groupContext="group">
				<title>Sheet.1033</title>
				<g id="shape1034-43" v:mID="1034" v:groupContext="shape" transform="translate(4.33877,-4.64918)">
					<title>Sheet.1034</title>
					<rect x="0" y="50.4994" width="8.9354" height="10.8525" class="st11"/>
				</g>
				<g id="shape1035-45" v:mID="1035" v:groupContext="shape" transform="translate(4.03606,-4.35769)">
					<title>Sheet.1035</title>
					<path d="M1.1 60.77 L0.58 60.77 L0.58 50.49 L8.97 50.49 L8.97 54.91 L9.53 54.91 L9.53 50.21 a0.280282 0.280282
								 -180 0 0 -0.280282 -0.280282 L0.28 49.93 a0.313916 0.313916 -180 0 0 -0.280282 0.280282 L0 61.07
								 a0.302705 0.302705 -180 0 0 0.0896903 0.201803 a0.291493 0.291493 -180 0 0 0.190592 0.078479 L1.08
								 61.35 L1.1 60.77 Z" class="st12"/>
				</g>
				<g id="shape1036-47" v:mID="1036" v:groupContext="shape" transform="translate(5.12356,-3.01234)">
					<title>Sheet.1036</title>
					<path d="M5.35 50.02 L0.39 50.02 a0.392395 0.392395 -180 0 0 -0.392395 0.43724 L0 60.97 a0.392395 0.392395 -180
								 0 0 0.392395 0.381184 L9 61.35 a0.392395 0.392395 -180 0 0 0.381184 -0.392395 L9.38 53.95 a0.392395
								 0.392395 -180 0 0 -0.392395 -0.392395 L6.14 53.56 a0.392395 0.392395 0 0 1 -0.392395 -0.392395 L5.75
								 50.45 a0.381184 0.381184 -180 0 0 -0.403606 -0.43724 Z" class="st11"/>
				</g>
				<g id="shape1037-49" v:mID="1037" v:groupContext="shape" transform="translate(5.04508,-2.9787)">
					<title>Sheet.1037</title>
					<path d="M5.25 50.48 L5.25 53.11 a0.964171 0.964171 -180 0 0 0.975382 0.964171 L8.97 54.08 L8.97 60.8 L0.62 60.8
								 L0.62 50.48 L5.25 50.48 ZM5.44 49.89 L0.41 49.89 a0.403606 0.403606 -180 0 0 -0.414818 0.392395
								 L0 60.96 a0.403606 0.403606 -180 0 0 0.403606 0.392395 L9.11 61.35 a0.392395 0.392395 -180 0 0 0.403606
								 -0.392395 L9.52 53.89 a0.381184 0.381184 -180 0 0 -0.403606 -0.381184 L6.23 53.5 a0.392395 0.392395
								 0 0 1 -0.392395 -0.392395 L5.84 50.29 a0.403606 0.403606 -180 0 0 -0.403606 -0.392395 Z"
							class="st13"/>
				</g>
				<g id="shape1038-53" v:mID="1038" v:groupContext="shape" transform="translate(10.7404,-10.7481)">
					<title>Sheet.1038</title>
					<path d="M3.68 61.34 L0 57.75 L0 60.68 a0.661466 0.661466 -180 0 0 0.661466 0.672677 L3.68 61.34 Z"
							class="st12"/>
				</g>
				<g id="shape1039-55" v:mID="1039" v:groupContext="shape" transform="translate(6.77162,-9.04401)">
					<title>Sheet.1039</title>
					<path d="M5.81 61.35 L0.2 61.35 a0.190592 0.190592 0 0 1 -0.201803 -0.190592 a0.201803 0.201803 0 0 1 0.246648
								 -0.190592 L5.85 60.97 a0.201803 0.201803 0 0 1 0.201803 0.201803 a0.190592 0.190592 0 0 1 -0.246648
								 0.179381 Z" class="st14"/>
				</g>
				<g id="shape1040-57" v:mID="1040" v:groupContext="shape" transform="translate(6.77162,-7.92288)">
					<title>Sheet.1040</title>
					<path d="M5.81 61.35 L0.2 61.35 a0.201803 0.201803 0 0 1 -0.201803 -0.201803 a0.201803 0.201803 0 0 1 0.246648
								 -0.179381 L5.85 60.97 a0.201803 0.201803 0 0 1 0.201803 0.190592 a0.201803 0.201803 0 0 1 -0.246648
								 0.190592 Z" class="st14"/>
				</g>
				<g id="shape1041-59" v:mID="1041" v:groupContext="shape" transform="translate(6.77162,-6.79054)">
					<title>Sheet.1041</title>
					<path d="M5.81 61.35 L0.2 61.35 a0.201803 0.201803 0 0 1 -0.201803 -0.201803 a0.190592 0.190592 0 0 1 0.246648
								 -0.190592 L5.85 60.96 a0.190592 0.190592 0 0 1 0.201803 0.190592 a0.201803 0.201803 0 0 1 -0.246648
								 0.201803 Z" class="st14"/>
				</g>
				<g id="shape1042-61" v:mID="1042" v:groupContext="shape">
					<title>Sheet.1042</title>
					<path d="M0 59.09 a0.168169 0.168169 -180 0 0 0.100902 0.156958 L1.48 60.02 L3.83 61.33 a0.190592 0.190592 -180
								 0 0 0.25786 -0.0672677 L4.89 59.94 a0.190592 0.190592 -180 0 0 -0.0672677 -0.25786 L2.06 58.15 a0.179381
								 0.179381 0 0 1 -0.0896903 -0.156958 L1.97 45.86 a0.179381 0.179381 0 0 1 0.0896903 -0.156958 L4.82
								 44.17 a0.190592 0.190592 -180 0 0 0.0672677 -0.25786 L4.09 42.59 a0.190592 0.190592 -180 0 0 -0.25786
								 -0.0672677 L1.52 43.81 L0.1 44.61 a0.168169 0.168169 -180 0 0 -0.100902 0.156958 L0 59.09 Z"
							class="st1"/>
				</g>
				<g id="shape1043-63" v:mID="1043" v:groupContext="shape" transform="translate(0,-15.5802)">
					<title>Sheet.1043</title>
					<path d="M1.96 61.35 a0.145747 0.145747 0 0 1 0.078479 -0.0672677 L4.79 59.75 a0.190592 0.190592 -180 0 0 0.0672677
								 -0.25786 L4.07 58.17 a0.213014 0.213014 -180 0 0 -0.269071 -0.0672677 L1.56 59.39 L0.07 60.19 a0.190592
								 0.190592 -180 0 0 -0.0672677 0.0672677 L1.12 60.85 L1.96 61.35 Z" class="st5"/>
				</g>
				<g id="shape1044-65" v:mID="1044" v:groupContext="shape" transform="translate(0.0112113,-0.0700342)">
					<title>Sheet.1044</title>
					<path d="M4.78 59.76 L2.03 58.22 a0.224226 0.224226 0 0 1 -0.0896903 -0.0896903 L0 59.25 L0.06 59.25 L1.45 60.02
								 L3.79 61.34 a0.213014 0.213014 -180 0 0 0.269071 -0.0672677 L4.84 59.95 a0.190592 0.190592 -180
								 0 0 -0.0672677 -0.190592 Z" class="st5"/>
				</g>
				<g id="shape1045-67" v:mID="1045" v:groupContext="shape" transform="translate(14.1521,0)">
					<title>Sheet.1045</title>
					<path d="M4.91 59.09 a0.168169 0.168169 0 0 1 -0.100902 0.156958 L3.43 60.02 L1.07 61.33 a0.190592 0.190592 0
								 0 1 -0.25786 -0.0672677 L0.02 59.94 a0.190592 0.190592 0 0 1 0.0672677 -0.25786 L2.84 58.15 a0.179381
								 0.179381 -180 0 0 0.0896903 -0.156958 L2.93 45.86 a0.179381 0.179381 -180 0 0 -0.0896903 -0.156958
								 L0.09 44.17 a0.190592 0.190592 0 0 1 -0.0672677 -0.25786 L0.81 42.59 a0.190592 0.190592 0 0 1 0.25786
								 -0.0672677 L3.38 43.81 L4.81 44.61 a0.168169 0.168169 0 0 1 0.100902 0.156958 L4.91 59.09 Z"
							class="st1"/>
				</g>
				<g id="shape1046-69" v:mID="1046" v:groupContext="shape" transform="translate(14.1858,-15.5802)">
					<title>Sheet.1046</title>
					<path d="M2.91 61.35 a0.145747 0.145747 -180 0 0 -0.078479 -0.0672677 L0.09 59.75 a0.190592 0.190592 0 0 1 -0.0672677
								 -0.25786 L0.8 58.17 a0.213014 0.213014 0 0 1 0.269071 -0.0672677 L3.37 59.39 L4.81 60.19 a0.190592
								 0.190592 0 0 1 0.0672677 0.0672677 L3.75 60.85 L2.91 61.35 Z" class="st5"/>
				</g>
				<g id="shape1047-71" v:mID="1047" v:groupContext="shape" transform="translate(14.2408,-0.0700342)">
					<title>Sheet.1047</title>
					<path d="M0.03 59.76 L2.78 58.22 a0.224226 0.224226 -180 0 0 0.0896903 -0.0896903 L4.81 59.25 L3.42 60.02 L1.07
								 61.34 a0.213014 0.213014 0 0 1 -0.269071 -0.0672677 L0.02 59.95 a0.190592 0.190592 0 0 1 0.0112113
								 -0.190592 Z" class="st5"/>
				</g>
			</g>
		</g>
	</g>
</svg>
