<?xml version="1.0" encoding="UTF-8" standalone="no"?>
<!DOCTYPE svg PUBLIC "-//W3C//DTD SVG 1.1//EN" "http://www.w3.org/Graphics/SVG/1.1/DTD/svg11.dtd">
<!-- Generated by Microsoft Visio, SVG Export Sandbox_v0.1.svg Page-1 -->
<svg xmlns="http://www.w3.org/2000/svg" xmlns:xlink="http://www.w3.org/1999/xlink" xmlns:ev="http://www.w3.org/2001/xml-events"
		xmlns:v="http://schemas.microsoft.com/visio/2003/SVGExtensions/" width="1.96416in" height="0.895662in"
		viewBox="0 0 141.419 64.4877" xml:space="preserve" color-interpolation-filters="sRGB" class="st16">
	<v:documentProperties v:langID="19465" v:metric="true" v:viewMarkup="false"/>

	<style type="text/css">
	<![CDATA[
		.st1 {fill:#ffffff;stroke:#ffffff;stroke-linecap:round;stroke-linejoin:round;stroke-width:0.75}
		.st2 {fill:#949494;stroke:none;stroke-linecap:butt;stroke-width:0.75}
		.st3 {fill:url(#grad0-9);stroke:none;stroke-linecap:butt;stroke-width:0.75}
		.st4 {fill:url(#grad0-13);stroke:none;stroke-linecap:butt;stroke-width:0.75}
		.st5 {fill:#37c2b1;stroke:none;stroke-linecap:butt;stroke-width:0.75}
		.st6 {fill:#a3a3a3;stroke:none;stroke-linecap:butt;stroke-width:0.75}
		.st7 {fill:none;stroke:none;stroke-linecap:round;stroke-linejoin:round;stroke-width:0.75}
		.st8 {fill:#000000;font-family:Calibri;font-size:1.00001em}
		.st9 {marker-end:url(#mrkr13-40);stroke:#c00000;stroke-linecap:round;stroke-linejoin:round;stroke-width:2.25}
		.st10 {fill:#c00000;fill-opacity:1;stroke:#c00000;stroke-opacity:1;stroke-width:0.47169811320755}
		.st11 {fill:#ffffff;stroke:#000000;stroke-linecap:round;stroke-linejoin:round;stroke-width:0.5}
		.st12 {fill:#ffffff;stroke:none;stroke-linecap:butt;stroke-width:0.75}
		.st13 {fill:#0078d4;stroke:none;stroke-linecap:butt;stroke-width:0.75}
		.st14 {fill:url(#grad0-54);stroke:none;stroke-linecap:butt;stroke-width:0.75}
		.st15 {fill:#4d4d4d;stroke:none;stroke-linecap:butt;stroke-width:0.75}
		.st16 {fill:none;fill-rule:evenodd;font-size:12px;overflow:visible;stroke-linecap:square;stroke-miterlimit:3}
	]]>
	</style>

	<defs id="Patterns_And_Gradients">
		<linearGradient id="grad0-9" x1="0" y1="0" x2="1" y2="0" gradientTransform="rotate(90 0.5 0.5)">
			<stop offset="0" stop-color="#c69aeb" stop-opacity="1"/>
			<stop offset="1" stop-color="#6f4bb2" stop-opacity="1"/>
		</linearGradient>
		<linearGradient id="grad0-13" x1="0" y1="0" x2="1" y2="0" gradientTransform="rotate(90 0.5 0.5)">
			<stop offset="0" stop-color="#54aef0" stop-opacity="1"/>
			<stop offset="1" stop-color="#1988d9" stop-opacity="1"/>
		</linearGradient>
		<linearGradient id="grad0-54" x1="0" y1="0" x2="1" y2="0" gradientTransform="rotate(-90.072226136554 0.5 0.5)">
			<stop offset="0" stop-color="#0078d4" stop-opacity="1"/>
			<stop offset="0.82" stop-color="#5ea0ef" stop-opacity="1"/>
		</linearGradient>
	</defs>
	<defs id="Markers">
		<g id="lend13">
			<path d="M 3 1 L 0 0 L 3 -1 L 3 1 " style="stroke:none"/>
		</g>
		<marker id="mrkr13-40" class="st10" v:arrowType="13" v:arrowSize="2" v:setback="6.36" refX="-6.36" orient="auto"
				markerUnits="strokeWidth" overflow="visible">
			<use xlink:href="#lend13" transform="scale(-2.12,-2.12) "/>
		</marker>
	</defs>
	<g v:mID="0" v:index="1" v:groupContext="foregroundPage">
		<title>Page-1</title>
		<v:pageProperties v:drawingScale="0.0393701" v:pageScale="0.0393701" v:drawingUnits="24" v:shadowOffsetX="8.50394"
				v:shadowOffsetY="-8.50394"/>
		<g id="shape1067-1" v:mID="1067" v:groupContext="shape" transform="translate(0.375,-1.75046)">
			<title>Sheet.1067</title>
			<rect x="0" y="2.12546" width="117.638" height="62.3622" class="st1"/>
		</g>
		<g id="group1014-3" transform="translate(79.0026,-19.54)" v:mID="1014" v:groupContext="group">
			<title>Management Groups.1406</title>
			<g id="shape1015-4" v:mID="1015" v:groupContext="shape" transform="translate(7.10934,-11.2144)">
				<title>Sheet.1015</title>
				<v:userDefs>
					<v:ud v:nameU="msvDisableCustomConnectionPoints" v:prompt="" v:val="VT0(1):5"/>
				</v:userDefs>
				<path d="M17.68 64 L14.86 57.58 L8.87 50.35 L2.84 57.56 L0 63.96 L1 64.45 L3.31 59.24 L5.58 64.45 L6.6 63.98 L3.96
							 57.97 L8.87 52.1 L13.76 57.99 L11.09 63.98 L12.08 64.47 L14.39 59.28 L16.67 64.49 L17.68 64 Z"
						class="st2"/>
			</g>
			<g id="shape1016-6" v:mID="1016" v:groupContext="shape" transform="translate(12.803,-21.1903)">
				<title>Sheet.1016</title>
				<v:userDefs>
					<v:ud v:nameU="msvDisableCustomConnectionPoints" v:prompt="" v:val="VT0(1):5"/>
				</v:userDefs>
				<ellipse cx="3.17569" cy="61.2012" rx="3.17569" ry="3.28642" class="st3"/>
			</g>
			<g id="shape1017-10" v:mID="1017" v:groupContext="shape" transform="translate(8.12406,-15.5898)">
				<title>Sheet.1017</title>
				<v:userDefs>
					<v:ud v:nameU="msvDisableCustomConnectionPoints" v:prompt="" v:val="VT0(1):5"/>
				</v:userDefs>
				<path d="M2.22 59.7 A2.3113 2.39189 0 1 1 -0 62.12 A2.3113 2.39189 0 0 1 2.22 59.7 ZM11.09 62.12 A2.29251 2.37245
							 -180 0 0 13.38 64.49 A2.3113 2.39189 -180 1 0 11.09 62.12 Z" class="st4"/>
			</g>
			<g id="group1018-14" transform="translate(5.77517,-9.56147)" v:mID="1018" v:groupContext="group">
				<v:userDefs>
					<v:ud v:nameU="msvDisableCustomConnectionPoints" v:prompt="" v:val="VT0(1):5"/>
				</v:userDefs>
				<title>Sheet.1018</title>
				<g id="shape1019-15" v:mID="1019" v:groupContext="shape" transform="translate(4.04676E-14,-0.0583388)">
					<title>Sheet.1019</title>
					<v:userDefs>
						<v:ud v:nameU="msvDisableCustomConnectionPoints" v:prompt="" v:val="VT0(1):5"/>
					</v:userDefs>
					<ellipse cx="1.82274" cy="62.6014" rx="1.82274" ry="1.88629" class="st5"/>
				</g>
				<g id="shape1020-17" v:mID="1020" v:groupContext="shape" transform="translate(5.59975,-0.0388925)">
					<title>Sheet.1020</title>
					<v:userDefs>
						<v:ud v:nameU="msvDisableCustomConnectionPoints" v:prompt="" v:val="VT0(1):5"/>
					</v:userDefs>
					<ellipse cx="1.82274" cy="62.6014" rx="1.82274" ry="1.88629" class="st5"/>
				</g>
				<g id="group1021-19" transform="translate(11.0867,0)" v:mID="1021" v:groupContext="group">
					<v:userDefs>
						<v:ud v:nameU="msvDisableCustomConnectionPoints" v:prompt="" v:val="VT0(1):5"/>
					</v:userDefs>
					<title>Sheet.1021</title>
					<g id="shape1022-20" v:mID="1022" v:groupContext="shape" transform="translate(4.59632E-14,-0.0194463)">
						<title>Sheet.1022</title>
						<v:userDefs>
							<v:ud v:nameU="msvDisableCustomConnectionPoints" v:prompt="" v:val="VT0(1):5"/>
						</v:userDefs>
						<ellipse cx="1.82274" cy="62.6014" rx="1.82274" ry="1.88629" class="st5"/>
					</g>
					<g id="shape1023-22" v:mID="1023" v:groupContext="shape" transform="translate(5.59975,-1.42109E-14)">
						<title>Sheet.1023</title>
						<v:userDefs>
							<v:ud v:nameU="msvDisableCustomConnectionPoints" v:prompt="" v:val="VT0(1):5"/>
						</v:userDefs>
						<ellipse cx="1.82274" cy="62.6014" rx="1.82274" ry="1.88629" class="st5"/>
					</g>
				</g>
			</g>
			<g id="shape1024-24" v:mID="1024" v:groupContext="shape" transform="translate(0.00630781,-0.162375)">
				<title>Sheet.1024</title>
				<v:userDefs>
					<v:ud v:nameU="msvDisableCustomConnectionPoints" v:prompt="" v:val="VT0(1):5"/>
				</v:userDefs>
				<path d="M0 60.73 a0.300657 0.31114 -180 0 0 0.150329 0.272248 L2.31 62.24 L6.07 64.46 a0.33824 0.350033 -180 0 0
							 0.432195 -0.116678 L7.65 62.24 a0.281866 0.291694 -180 0 0 -0.112747 -0.427818 L3.23 59.15 a0.300657
							 0.31114 0 0 1 -0.150329 -0.272248 L3.08 38.38 a0.300657 0.31114 0 0 1 0.150329 -0.272248 L7.54 35.53
							 a0.281866 0.291694 -180 0 0 0.112747 -0.505603 L6.43 32.86 a0.33824 0.350033 -180 0 0 -0.432195 -0.116678
							 L2.39 34.9 L0.15 36.26 a0.300657 0.31114 -180 0 0 -0.150329 0.272248 L0 60.73 Z" class="st2"/>
			</g>
			<g id="shape1025-26" v:mID="1025" v:groupContext="shape">
				<title>Sheet.1025</title>
				<v:userDefs>
					<v:ud v:nameU="msvDisableCustomConnectionPoints" v:prompt="" v:val="VT0(1):5"/>
				</v:userDefs>
				<path d="M7.65 34.86 L6.43 32.7 a0.33824 0.350033 -180 0 0 -0.319449 -0.15557 L5.96 32.54 L2.36 34.74 L0.12 36.1
							 a0.187911 0.194463 -180 0 0 -0.112747 2.98428E-13 a0.450986 0.466711 -180 0 0 -4.4964E-14 0.15557 L3.09
							 38.2 a0.300657 0.31114 0 0 1 0.150329 -0.272248 L7.54 35.36 a0.281866 0.291694 -180 0 0 0.112747 -0.505603
							 ZM7.65 62.08 L6.43 64.32 a0.33824 0.350033 0 0 1 -0.319449 0.15557 a0.225493 0.233355 0 0 1 -0.150329
							 1.42109E-14 L2.36 62.2 L0.12 60.84 a0.187911 0.194463 0 0 1 -0.112747 7.10543E-15 a0.450986 0.466711
							 0 0 1 0 -0.15557 L3.09 58.74 a0.300657 0.31114 -180 0 0 0.150329 0.272248 L7.54 61.6 a0.300657 0.31114
							 0 0 1 0.112747 0.486157 Z" class="st6"/>
			</g>
			<g id="shape1026-28" v:mID="1026" v:groupContext="shape" transform="translate(24.2643,-0.104036)">
				<title>Sheet.1026</title>
				<v:userDefs>
					<v:ud v:nameU="msvDisableCustomConnectionPoints" v:prompt="" v:val="VT0(1):5"/>
				</v:userDefs>
				<path d="M7.69 36.48 a0.300657 0.31114 -180 0 0 -0.150329 -0.272248 L5.38 34.96 L1.62 32.74 a0.33824 0.350033 -180
							 0 0 -0.432195 0.116678 L0.04 34.96 a0.281866 0.291694 -180 0 0 0.112747 0.427818 L4.45 37.98 a0.300657
							 0.31114 0 0 1 0.150329 0.272248 L4.61 58.82 a0.300657 0.31114 0 0 1 -0.150329 0.272248 L0.15 61.68 a0.281866
							 0.291694 -180 0 0 -0.112747 0.427818 L1.26 64.34 a0.33824 0.350033 -180 0 0 0.432195 0.116678 L5.3 62.3
							 L7.54 60.94 a0.300657 0.31114 -180 0 0 0.150329 -0.272248 L7.69 36.48 Z" class="st2"/>
			</g>
			<g id="shape1027-30" v:mID="1027" v:groupContext="shape" transform="translate(24.2283,-0.0133458)">
				<title>Sheet.1027</title>
				<v:userDefs>
					<v:ud v:nameU="msvDisableCustomConnectionPoints" v:prompt="" v:val="VT0(1):5"/>
				</v:userDefs>
				<path d="M0.07 62.1 L1.3 64.33 a0.33824 0.350033 -180 0 0 0.319449 0.15557 L1.77 64.49 L5.37 62.33 L7.61 60.97 a0.187911
							 0.194463 -180 0 0 0.112747 -7.10543E-15 a0.450986 0.466711 -180 0 0 1.15463E-14 -0.15557 L4.64 58.87
							 a0.300657 0.31114 0 0 1 -0.150329 0.272248 L0.19 61.73 a0.281866 0.291694 -180 0 0 -0.112747 0.369479
							 ZM0.07 34.87 L1.3 32.71 a0.33824 0.350033 0 0 1 0.319449 -0.15557 a0.225493 0.233355 0 0 1 0.150329
							 2.13163E-13 L5.37 34.72 L7.61 36.08 a0.187911 0.194463 0 0 1 0.112747 1.7053E-13 a0.450986 0.466711
							 0 0 1 -1.26121E-13 0.15557 L4.64 38.18 a0.300657 0.31114 -180 0 0 -0.150329 -0.272248 L0.19 35.38 a0.300657
							 0.31114 0 0 1 -0.112747 -0.505603 Z" class="st6"/>
			</g>
		</g>
		<g id="shape1029-32" v:mID="1029" v:groupContext="shape" transform="translate(48.9183,-0.375)">
			<title>Sheet.1029</title>
			<desc>Sandbox</desc>
			<v:textBlock v:margins="rect(4,4,4,4)" v:tabSpace="42.5197"/>
			<v:textRect cx="46.063" cy="55.6348" width="92.13" height="17.7058"/>
			<rect x="0" y="46.7819" width="92.126" height="17.7058" class="st7"/>
			<text x="25.21" y="59.23" class="st8" v:langID="1033"><v:paragraph v:horizAlign="1"/><v:tabList/>Sandbox</text>		</g>
		<g id="shape1048-35" v:mID="1048" v:groupContext="shape" transform="translate(50.3968,-36.9839)">
			<title>Sheet.1048</title>
			<path d="M0 64.49 L13.52 64.49" class="st9"/>
		</g>
		<g id="shape1049-41" v:mID="1049" v:groupContext="shape" transform="translate(4.88006,-14.3657)">
			<title>Sheet.1049</title>
			<ellipse cx="23.2087" cy="41.279" rx="23.2087" ry="23.2087" class="st11"/>
		</g>
		<g id="group1050-43" transform="translate(19.5118,-14.9832)" v:mID="1050" v:groupContext="group">
			<title>Icon-377PolicySet.1605</title>
			<g id="group1051-44" transform="translate(5.19584E-14,-13.3058)" v:mID="1051" v:groupContext="group">
				<title>Sheet.1051</title>
				<g id="shape1052-45" v:mID="1052" v:groupContext="shape" transform="translate(4.33877,-4.64918)">
					<title>Sheet.1052</title>
					<rect x="0" y="53.6351" width="8.9354" height="10.8525" class="st12"/>
				</g>
				<g id="shape1053-47" v:mID="1053" v:groupContext="shape" transform="translate(4.03606,-4.35769)">
					<title>Sheet.1053</title>
					<path d="M1.1 63.9 L0.58 63.9 L0.58 53.62 L8.97 53.62 L8.97 58.04 L9.53 58.04 L9.53 53.34 a0.280282 0.280282
								 -180 0 0 -0.280282 -0.280282 L0.28 53.06 a0.313916 0.313916 -180 0 0 -0.280282 0.280282 L0 64.21
								 a0.302705 0.302705 -180 0 0 0.0896903 0.201803 a0.291493 0.291493 -180 0 0 0.190592 0.078479 L1.08
								 64.49 L1.1 63.9 Z" class="st13"/>
				</g>
				<g id="shape1054-49" v:mID="1054" v:groupContext="shape" transform="translate(5.12356,-3.01234)">
					<title>Sheet.1054</title>
					<path d="M5.35 53.15 L0.39 53.15 a0.392395 0.392395 -180 0 0 -0.392395 0.43724 L0 64.11 a0.392395 0.392395 -180
								 0 0 0.392395 0.381184 L9 64.49 a0.392395 0.392395 -180 0 0 0.381184 -0.392395 L9.38 57.09 a0.392395
								 0.392395 -180 0 0 -0.392395 -0.392395 L6.14 56.7 a0.392395 0.392395 0 0 1 -0.392395 -0.392395 L5.75
								 53.59 a0.381184 0.381184 -180 0 0 -0.403606 -0.43724 Z" class="st12"/>
				</g>
				<g id="shape1055-51" v:mID="1055" v:groupContext="shape" transform="translate(5.04508,-2.9787)">
					<title>Sheet.1055</title>
					<path d="M5.25 53.61 L5.25 56.25 a0.964171 0.964171 -180 0 0 0.975382 0.964171 L8.97 57.21 L8.97 63.94 L0.62
								 63.94 L0.62 53.61 L5.25 53.61 ZM5.44 53.03 L0.41 53.03 a0.403606 0.403606 -180 0 0 -0.414818 0.392395
								 L0 64.1 a0.403606 0.403606 -180 0 0 0.403606 0.392395 L9.11 64.49 a0.392395 0.392395 -180 0 0 0.403606
								 -0.392395 L9.52 57.02 a0.381184 0.381184 -180 0 0 -0.403606 -0.381184 L6.23 56.64 a0.392395 0.392395
								 0 0 1 -0.392395 -0.392395 L5.84 53.42 a0.403606 0.403606 -180 0 0 -0.403606 -0.392395 Z"
							class="st14"/>
				</g>
				<g id="shape1056-55" v:mID="1056" v:groupContext="shape" transform="translate(10.7404,-10.7481)">
					<title>Sheet.1056</title>
					<path d="M3.68 64.48 L0 60.89 L0 63.81 a0.661466 0.661466 -180 0 0 0.661466 0.672677 L3.68 64.48 Z"
							class="st13"/>
				</g>
				<g id="shape1057-57" v:mID="1057" v:groupContext="shape" transform="translate(6.77162,-9.04401)">
					<title>Sheet.1057</title>
					<path d="M5.81 64.49 L0.2 64.49 a0.190592 0.190592 0 0 1 -0.201803 -0.190592 a0.201803 0.201803 0 0 1 0.246648
								 -0.190592 L5.85 64.11 a0.201803 0.201803 0 0 1 0.201803 0.201803 a0.190592 0.190592 0 0 1 -0.246648
								 0.179381 Z" class="st15"/>
				</g>
				<g id="shape1058-59" v:mID="1058" v:groupContext="shape" transform="translate(6.77162,-7.92288)">
					<title>Sheet.1058</title>
					<path d="M5.81 64.49 L0.2 64.49 a0.201803 0.201803 0 0 1 -0.201803 -0.201803 a0.201803 0.201803 0 0 1 0.246648
								 -0.179381 L5.85 64.11 a0.201803 0.201803 0 0 1 0.201803 0.190592 a0.201803 0.201803 0 0 1 -0.246648
								 0.190592 Z" class="st15"/>
				</g>
				<g id="shape1059-61" v:mID="1059" v:groupContext="shape" transform="translate(6.77162,-6.79054)">
					<title>Sheet.1059</title>
					<path d="M5.81 64.49 L0.2 64.49 a0.201803 0.201803 0 0 1 -0.201803 -0.201803 a0.190592 0.190592 0 0 1 0.246648
								 -0.190592 L5.85 64.1 a0.190592 0.190592 0 0 1 0.201803 0.190592 a0.201803 0.201803 0 0 1 -0.246648
								 0.201803 Z" class="st15"/>
				</g>
				<g id="shape1060-63" v:mID="1060" v:groupContext="shape">
					<title>Sheet.1060</title>
					<path d="M0 62.23 a0.168169 0.168169 -180 0 0 0.100902 0.156958 L1.48 63.16 L3.83 64.47 a0.190592 0.190592 -180
								 0 0 0.25786 -0.0672677 L4.89 63.08 a0.190592 0.190592 -180 0 0 -0.0672677 -0.25786 L2.06 61.28 a0.179381
								 0.179381 0 0 1 -0.0896903 -0.156958 L1.97 49 a0.179381 0.179381 0 0 1 0.0896903 -0.156958 L4.82
								 47.3 a0.190592 0.190592 -180 0 0 0.0672677 -0.25786 L4.09 45.72 a0.190592 0.190592 -180 0 0 -0.25786
								 -0.0672677 L1.52 46.95 L0.1 47.74 a0.168169 0.168169 -180 0 0 -0.100902 0.156958 L0 62.23 Z"
							class="st2"/>
				</g>
				<g id="shape1061-65" v:mID="1061" v:groupContext="shape" transform="translate(0,-15.5802)">
					<title>Sheet.1061</title>
					<path d="M1.96 64.49 a0.145747 0.145747 0 0 1 0.078479 -0.0672677 L4.79 62.88 a0.190592 0.190592 -180 0 0 0.0672677
								 -0.25786 L4.07 61.3 a0.213014 0.213014 -180 0 0 -0.269071 -0.0672677 L1.56 62.53 L0.07 63.32 a0.190592
								 0.190592 -180 0 0 -0.0672677 0.0672677 L1.12 63.98 L1.96 64.49 Z" class="st6"/>
				</g>
				<g id="shape1062-67" v:mID="1062" v:groupContext="shape" transform="translate(0.0112113,-0.0700342)">
					<title>Sheet.1062</title>
					<path d="M4.78 62.89 L2.03 61.35 a0.224226 0.224226 0 0 1 -0.0896903 -0.0896903 L0 62.39 L0.06 62.39 L1.45 63.16
								 L3.79 64.47 a0.213014 0.213014 -180 0 0 0.269071 -0.0672677 L4.84 63.08 a0.190592 0.190592 -180
								 0 0 -0.0672677 -0.190592 Z" class="st6"/>
				</g>
				<g id="shape1063-69" v:mID="1063" v:groupContext="shape" transform="translate(14.1521,0)">
					<title>Sheet.1063</title>
					<path d="M4.91 62.23 a0.168169 0.168169 0 0 1 -0.100902 0.156958 L3.43 63.16 L1.07 64.47 a0.190592 0.190592 0
								 0 1 -0.25786 -0.0672677 L0.02 63.08 a0.190592 0.190592 0 0 1 0.0672677 -0.25786 L2.84 61.28 a0.179381
								 0.179381 -180 0 0 0.0896903 -0.156958 L2.93 49 a0.179381 0.179381 -180 0 0 -0.0896903 -0.156958
								 L0.09 47.3 a0.190592 0.190592 0 0 1 -0.0672677 -0.25786 L0.81 45.72 a0.190592 0.190592 0 0 1 0.25786
								 -0.0672677 L3.38 46.95 L4.81 47.74 a0.168169 0.168169 0 0 1 0.100902 0.156958 L4.91 62.23 Z"
							class="st2"/>
				</g>
				<g id="shape1064-71" v:mID="1064" v:groupContext="shape" transform="translate(14.1858,-15.5802)">
					<title>Sheet.1064</title>
					<path d="M2.91 64.49 a0.145747 0.145747 -180 0 0 -0.078479 -0.0672677 L0.09 62.88 a0.190592 0.190592 0 0 1 -0.0672677
								 -0.25786 L0.8 61.3 a0.213014 0.213014 0 0 1 0.269071 -0.0672677 L3.37 62.53 L4.81 63.32 a0.190592
								 0.190592 0 0 1 0.0672677 0.0672677 L3.75 63.98 L2.91 64.49 Z" class="st6"/>
				</g>
				<g id="shape1065-73" v:mID="1065" v:groupContext="shape" transform="translate(14.2408,-0.0700342)">
					<title>Sheet.1065</title>
					<path d="M0.03 62.89 L2.78 61.35 a0.224226 0.224226 -180 0 0 0.0896903 -0.0896903 L4.81 62.39 L3.42 63.16 L1.07
								 64.47 a0.213014 0.213014 0 0 1 -0.269071 -0.0672677 L0.02 63.08 a0.190592 0.190592 0 0 1 0.0112113
								 -0.190592 Z" class="st6"/>
				</g>
			</g>
		</g>
	</g>
</svg>
