<?xml version="1.0" encoding="UTF-8" standalone="no"?>
<!DOCTYPE svg PUBLIC "-//W3C//DTD SVG 1.1//EN" "http://www.w3.org/Graphics/SVG/1.1/DTD/svg11.dtd">
<!-- Generated by Microsoft Visio, SVG Export ALZ Repo Wiki Visio2.svg Page-1 -->
<svg xmlns="http://www.w3.org/2000/svg" xmlns:xlink="http://www.w3.org/1999/xlink" xmlns:ev="http://www.w3.org/2001/xml-events"
		xmlns:v="http://schemas.microsoft.com/visio/2003/SVGExtensions/" width="1.89985in" height="0.847681in"
		viewBox="0 0 136.789 61.033" xml:space="preserve" color-interpolation-filters="sRGB" class="st15">
	<v:documentProperties v:langID="19465" v:metric="true" v:viewMarkup="false"/>

	<style type="text/css">
	<![CDATA[
		.st1 {fill:#949494;stroke:none;stroke-linecap:butt;stroke-width:0.75}
		.st2 {fill:url(#grad0-7);stroke:none;stroke-linecap:butt;stroke-width:0.75}
		.st3 {fill:url(#grad0-11);stroke:none;stroke-linecap:butt;stroke-width:0.75}
		.st4 {fill:#37c2b1;stroke:none;stroke-linecap:butt;stroke-width:0.75}
		.st5 {fill:#a3a3a3;stroke:none;stroke-linecap:butt;stroke-width:0.75}
		.st6 {fill:none;stroke:none;stroke-linecap:round;stroke-linejoin:round;stroke-width:0.75}
		.st7 {fill:#000000;font-family:Calibri;font-size:1.00001em}
		.st8 {marker-end:url(#mrkr13-38);stroke:#c00000;stroke-linecap:round;stroke-linejoin:round;stroke-width:2.25}
		.st9 {fill:#c00000;fill-opacity:1;stroke:#c00000;stroke-opacity:1;stroke-width:0.47169811320755}
		.st10 {fill:#ffffff;stroke:#000000;stroke-linecap:round;stroke-linejoin:round;stroke-width:0.5}
		.st11 {fill:#ffffff;stroke:none;stroke-linecap:butt;stroke-width:0.75}
		.st12 {fill:#0078d4;stroke:none;stroke-linecap:butt;stroke-width:0.75}
		.st13 {fill:url(#grad0-52);stroke:none;stroke-linecap:butt;stroke-width:0.75}
		.st14 {fill:#4d4d4d;stroke:none;stroke-linecap:butt;stroke-width:0.75}
		.st15 {fill:none;fill-rule:evenodd;font-size:12px;overflow:visible;stroke-linecap:square;stroke-miterlimit:3}
	]]>
	</style>

	<defs id="Patterns_And_Gradients">
		<linearGradient id="grad0-7" x1="0" y1="0" x2="1" y2="0" gradientTransform="rotate(90 0.5 0.5)">
			<stop offset="0" stop-color="#c69aeb" stop-opacity="1"/>
			<stop offset="1" stop-color="#6f4bb2" stop-opacity="1"/>
		</linearGradient>
		<linearGradient id="grad0-11" x1="0" y1="0" x2="1" y2="0" gradientTransform="rotate(90 0.5 0.5)">
			<stop offset="0" stop-color="#54aef0" stop-opacity="1"/>
			<stop offset="1" stop-color="#1988d9" stop-opacity="1"/>
		</linearGradient>
		<linearGradient id="grad0-52" x1="0" y1="0" x2="1" y2="0" gradientTransform="rotate(-90.072226136554 0.5 0.5)">
			<stop offset="0" stop-color="#0078d4" stop-opacity="1"/>
			<stop offset="0.82" stop-color="#5ea0ef" stop-opacity="1"/>
		</linearGradient>
	</defs>
	<defs id="Markers">
		<g id="lend13">
			<path d="M 3 1 L 0 0 L 3 -1 L 3 1 " style="stroke:none"/>
		</g>
		<marker id="mrkr13-38" class="st9" v:arrowType="13" v:arrowSize="2" v:setback="6.36" refX="-6.36" orient="auto"
				markerUnits="strokeWidth" overflow="visible">
			<use xlink:href="#lend13" transform="scale(-2.12,-2.12) "/>
		</marker>
	</defs>
	<g v:mID="0" v:index="1" v:groupContext="foregroundPage">
		<title>Page-1</title>
		<v:pageProperties v:drawingScale="0.0393701" v:pageScale="0.0393701" v:drawingUnits="24" v:shadowOffsetX="8.50394"
				v:shadowOffsetY="-8.50394"/>
		<g id="group1014-1" transform="translate(74.3725,-19.54)" v:mID="1014" v:groupContext="group">
			<title>Management Groups.1406</title>
			<g id="shape1015-2" v:mID="1015" v:groupContext="shape" transform="translate(7.10934,-11.2144)">
				<title>Sheet.1015</title>
				<v:userDefs>
					<v:ud v:nameU="msvDisableCustomConnectionPoints" v:prompt="" v:val="VT0(1):5"/>
				</v:userDefs>
				<path d="M17.68 60.55 L14.86 54.13 L8.87 46.9 L2.84 54.11 L0 60.51 L1 60.99 L3.31 55.78 L5.58 60.99 L6.6 60.53 L3.96
							 54.52 L8.87 48.65 L13.76 54.54 L11.09 60.53 L12.08 61.01 L14.39 55.82 L16.67 61.03 L17.68 60.55 Z"
						class="st1"/>
			</g>
			<g id="shape1016-4" v:mID="1016" v:groupContext="shape" transform="translate(12.803,-21.1903)">
				<title>Sheet.1016</title>
				<v:userDefs>
					<v:ud v:nameU="msvDisableCustomConnectionPoints" v:prompt="" v:val="VT0(1):5"/>
				</v:userDefs>
				<ellipse cx="3.17569" cy="57.7466" rx="3.17569" ry="3.28642" class="st2"/>
			</g>
			<g id="shape1017-8" v:mID="1017" v:groupContext="shape" transform="translate(8.12406,-15.5898)">
				<title>Sheet.1017</title>
				<v:userDefs>
					<v:ud v:nameU="msvDisableCustomConnectionPoints" v:prompt="" v:val="VT0(1):5"/>
				</v:userDefs>
				<path d="M2.22 56.25 A2.3113 2.39189 0 1 1 -0 58.66 A2.3113 2.39189 0 0 1 2.22 56.25 ZM11.09 58.66 A2.29251 2.37245
							 -180 0 0 13.38 61.03 A2.3113 2.39189 -180 1 0 11.09 58.66 Z" class="st3"/>
			</g>
			<g id="group1018-12" transform="translate(5.77517,-9.56147)" v:mID="1018" v:groupContext="group">
				<v:userDefs>
					<v:ud v:nameU="msvDisableCustomConnectionPoints" v:prompt="" v:val="VT0(1):5"/>
				</v:userDefs>
				<title>Sheet.1018</title>
				<g id="shape1019-13" v:mID="1019" v:groupContext="shape" transform="translate(4.04676E-14,-0.0583388)">
					<title>Sheet.1019</title>
					<v:userDefs>
						<v:ud v:nameU="msvDisableCustomConnectionPoints" v:prompt="" v:val="VT0(1):5"/>
					</v:userDefs>
					<ellipse cx="1.82274" cy="59.1467" rx="1.82274" ry="1.88629" class="st4"/>
				</g>
				<g id="shape1020-15" v:mID="1020" v:groupContext="shape" transform="translate(5.59975,-0.0388925)">
					<title>Sheet.1020</title>
					<v:userDefs>
						<v:ud v:nameU="msvDisableCustomConnectionPoints" v:prompt="" v:val="VT0(1):5"/>
					</v:userDefs>
					<ellipse cx="1.82274" cy="59.1467" rx="1.82274" ry="1.88629" class="st4"/>
				</g>
				<g id="group1021-17" transform="translate(11.0867,0)" v:mID="1021" v:groupContext="group">
					<v:userDefs>
						<v:ud v:nameU="msvDisableCustomConnectionPoints" v:prompt="" v:val="VT0(1):5"/>
					</v:userDefs>
					<title>Sheet.1021</title>
					<g id="shape1022-18" v:mID="1022" v:groupContext="shape" transform="translate(4.59632E-14,-0.0194463)">
						<title>Sheet.1022</title>
						<v:userDefs>
							<v:ud v:nameU="msvDisableCustomConnectionPoints" v:prompt="" v:val="VT0(1):5"/>
						</v:userDefs>
						<ellipse cx="1.82274" cy="59.1467" rx="1.82274" ry="1.88629" class="st4"/>
					</g>
					<g id="shape1023-20" v:mID="1023" v:groupContext="shape" transform="translate(5.59975,-1.42109E-14)">
						<title>Sheet.1023</title>
						<v:userDefs>
							<v:ud v:nameU="msvDisableCustomConnectionPoints" v:prompt="" v:val="VT0(1):5"/>
						</v:userDefs>
						<ellipse cx="1.82274" cy="59.1467" rx="1.82274" ry="1.88629" class="st4"/>
					</g>
				</g>
			</g>
			<g id="shape1024-22" v:mID="1024" v:groupContext="shape" transform="translate(0.00630781,-0.162375)">
				<title>Sheet.1024</title>
				<v:userDefs>
					<v:ud v:nameU="msvDisableCustomConnectionPoints" v:prompt="" v:val="VT0(1):5"/>
				</v:userDefs>
				<path d="M0 57.27 a0.300657 0.31114 -180 0 0 0.150329 0.272248 L2.31 58.79 L6.07 61.01 a0.33824 0.350033 -180 0 0
							 0.432195 -0.116678 L7.65 58.79 a0.281866 0.291694 -180 0 0 -0.112747 -0.427818 L3.23 55.7 a0.300657
							 0.31114 0 0 1 -0.150329 -0.272248 L3.08 34.93 a0.300657 0.31114 0 0 1 0.150329 -0.272248 L7.54 32.07
							 a0.281866 0.291694 -180 0 0 0.112747 -0.505603 L6.43 29.41 a0.33824 0.350033 -180 0 0 -0.432195 -0.116678
							 L2.39 31.45 L0.15 32.81 a0.300657 0.31114 -180 0 0 -0.150329 0.272248 L0 57.27 Z" class="st1"/>
			</g>
			<g id="shape1025-24" v:mID="1025" v:groupContext="shape">
				<title>Sheet.1025</title>
				<v:userDefs>
					<v:ud v:nameU="msvDisableCustomConnectionPoints" v:prompt="" v:val="VT0(1):5"/>
				</v:userDefs>
				<path d="M7.65 31.4 L6.43 29.24 a0.33824 0.350033 -180 0 0 -0.319449 -0.15557 L5.96 29.09 L2.36 31.29 L0.12 32.65
							 a0.187911 0.194463 -180 0 0 -0.112747 2.98428E-13 a0.450986 0.466711 -180 0 0 -4.4964E-14 0.15557 L3.09
							 34.75 a0.300657 0.31114 0 0 1 0.150329 -0.272248 L7.54 31.91 a0.281866 0.291694 -180 0 0 0.112747 -0.505603
							 ZM7.65 58.63 L6.43 60.86 a0.33824 0.350033 0 0 1 -0.319449 0.15557 a0.225493 0.233355 0 0 1 -0.150329
							 0 L2.36 58.74 L0.12 57.38 a0.187911 0.194463 0 0 1 -0.112747 7.10543E-15 a0.450986 0.466711 0 0 1 0
							 -0.15557 L3.09 55.28 a0.300657 0.31114 -180 0 0 0.150329 0.272248 L7.54 58.14 a0.300657 0.31114 0 0
							 1 0.112747 0.486157 Z" class="st5"/>
			</g>
			<g id="shape1026-26" v:mID="1026" v:groupContext="shape" transform="translate(24.2643,-0.104036)">
				<title>Sheet.1026</title>
				<v:userDefs>
					<v:ud v:nameU="msvDisableCustomConnectionPoints" v:prompt="" v:val="VT0(1):5"/>
				</v:userDefs>
				<path d="M7.69 33.02 a0.300657 0.31114 -180 0 0 -0.150329 -0.272248 L5.38 31.51 L1.62 29.29 a0.33824 0.350033 -180
							 0 0 -0.432195 0.116678 L0.04 31.51 a0.281866 0.291694 -180 0 0 0.112747 0.427818 L4.45 34.52 a0.300657
							 0.31114 0 0 1 0.150329 0.272248 L4.61 55.37 a0.300657 0.31114 0 0 1 -0.150329 0.272248 L0.15 58.23 a0.281866
							 0.291694 -180 0 0 -0.112747 0.427818 L1.26 60.89 a0.33824 0.350033 -180 0 0 0.432195 0.116678 L5.3 58.85
							 L7.54 57.49 a0.300657 0.31114 -180 0 0 0.150329 -0.272248 L7.69 33.02 Z" class="st1"/>
			</g>
			<g id="shape1027-28" v:mID="1027" v:groupContext="shape" transform="translate(24.2283,-0.0133458)">
				<title>Sheet.1027</title>
				<v:userDefs>
					<v:ud v:nameU="msvDisableCustomConnectionPoints" v:prompt="" v:val="VT0(1):5"/>
				</v:userDefs>
				<path d="M0.07 58.64 L1.3 60.88 a0.33824 0.350033 -180 0 0 0.319449 0.15557 L1.77 61.03 L5.37 58.87 L7.61 57.51 a0.187911
							 0.194463 -180 0 0 0.112747 -7.10543E-15 a0.450986 0.466711 -180 0 0 1.15463E-14 -0.15557 L4.64 55.41
							 a0.300657 0.31114 0 0 1 -0.150329 0.272248 L0.19 58.27 a0.281866 0.291694 -180 0 0 -0.112747 0.369479
							 ZM0.07 31.42 L1.3 29.26 a0.33824 0.350033 0 0 1 0.319449 -0.15557 a0.225493 0.233355 0 0 1 0.150329
							 2.0961E-13 L5.37 31.26 L7.61 32.62 a0.187911 0.194463 0 0 1 0.112747 1.7053E-13 a0.450986 0.466711 0
							 0 1 -1.26121E-13 0.15557 L4.64 34.72 a0.300657 0.31114 -180 0 0 -0.150329 -0.272248 L0.19 31.92 a0.300657
							 0.31114 0 0 1 -0.112747 -0.505603 Z" class="st5"/>
			</g>
		</g>
		<g id="shape1029-30" v:mID="1029" v:groupContext="shape" transform="translate(44.2882,-0.375)">
			<title>Sheet.1029</title>
			<desc>Sandbox</desc>
			<v:textBlock v:margins="rect(4,4,4,4)" v:tabSpace="42.5197"/>
			<v:textRect cx="46.063" cy="52.1801" width="92.13" height="17.7058"/>
			<rect x="0" y="43.3272" width="92.126" height="17.7058" class="st6"/>
			<text x="25.21" y="55.78" class="st7" v:langID="1033"><v:paragraph v:horizAlign="1"/><v:tabList/>Sandbox</text>		</g>
		<g id="shape1048-33" v:mID="1048" v:groupContext="shape" transform="translate(45.7668,-36.9839)">
			<title>Sheet.1048</title>
			<path d="M0 61.03 L13.52 61.03" class="st8"/>
		</g>
		<g id="shape1049-39" v:mID="1049" v:groupContext="shape" transform="translate(0.25,-14.3657)">
			<title>Sheet.1049</title>
			<ellipse cx="23.2087" cy="37.8244" rx="23.2087" ry="23.2087" class="st10"/>
		</g>
		<g id="group1050-41" transform="translate(14.8817,-14.9832)" v:mID="1050" v:groupContext="group">
			<title>Icon-377PolicySet.1605</title>
			<g id="group1051-42" transform="translate(5.19584E-14,-13.3058)" v:mID="1051" v:groupContext="group">
				<title>Sheet.1051</title>
				<g id="shape1052-43" v:mID="1052" v:groupContext="shape" transform="translate(4.33877,-4.64918)">
					<title>Sheet.1052</title>
					<rect x="0" y="50.1805" width="8.9354" height="10.8525" class="st11"/>
				</g>
				<g id="shape1053-45" v:mID="1053" v:groupContext="shape" transform="translate(4.03606,-4.35769)">
					<title>Sheet.1053</title>
					<path d="M1.1 60.45 L0.58 60.45 L0.58 50.17 L8.97 50.17 L8.97 54.59 L9.53 54.59 L9.53 49.89 a0.280282 0.280282
								 -180 0 0 -0.280282 -0.280282 L0.28 49.61 a0.313916 0.313916 -180 0 0 -0.280282 0.280282 L0 60.75
								 a0.302705 0.302705 -180 0 0 0.0896903 0.201803 a0.291493 0.291493 -180 0 0 0.190592 0.078479 L1.08
								 61.03 L1.1 60.45 Z" class="st12"/>
				</g>
				<g id="shape1054-47" v:mID="1054" v:groupContext="shape" transform="translate(5.12356,-3.01234)">
					<title>Sheet.1054</title>
					<path d="M5.35 49.7 L0.39 49.7 a0.392395 0.392395 -180 0 0 -0.392395 0.43724 L0 60.65 a0.392395 0.392395 -180
								 0 0 0.392395 0.381184 L9 61.03 a0.392395 0.392395 -180 0 0 0.381184 -0.392395 L9.38 53.63 a0.392395
								 0.392395 -180 0 0 -0.392395 -0.392395 L6.14 53.24 a0.392395 0.392395 0 0 1 -0.392395 -0.392395 L5.75
								 50.14 a0.381184 0.381184 -180 0 0 -0.403606 -0.43724 Z" class="st11"/>
				</g>
				<g id="shape1055-49" v:mID="1055" v:groupContext="shape" transform="translate(5.04508,-2.9787)">
					<title>Sheet.1055</title>
					<path d="M5.25 50.16 L5.25 52.79 a0.964171 0.964171 -180 0 0 0.975382 0.964171 L8.97 53.76 L8.97 60.48 L0.62
								 60.48 L0.62 50.16 L5.25 50.16 ZM5.44 49.58 L0.41 49.58 a0.403606 0.403606 -180 0 0 -0.414818 0.392395
								 L0 60.64 a0.403606 0.403606 -180 0 0 0.403606 0.392395 L9.11 61.03 a0.392395 0.392395 -180 0 0 0.403606
								 -0.392395 L9.52 53.57 a0.381184 0.381184 -180 0 0 -0.403606 -0.381184 L6.23 53.19 a0.392395 0.392395
								 0 0 1 -0.392395 -0.392395 L5.84 49.97 a0.403606 0.403606 -180 0 0 -0.403606 -0.392395 Z"
							class="st13"/>
				</g>
				<g id="shape1056-53" v:mID="1056" v:groupContext="shape" transform="translate(10.7404,-10.7481)">
					<title>Sheet.1056</title>
					<path d="M3.68 61.02 L0 57.43 L0 60.36 a0.661466 0.661466 -180 0 0 0.661466 0.672677 L3.68 61.02 Z"
							class="st12"/>
				</g>
				<g id="shape1057-55" v:mID="1057" v:groupContext="shape" transform="translate(6.77162,-9.04401)">
					<title>Sheet.1057</title>
					<path d="M5.81 61.03 L0.2 61.03 a0.190592 0.190592 0 0 1 -0.201803 -0.190592 a0.201803 0.201803 0 0 1 0.246648
								 -0.190592 L5.85 60.65 a0.201803 0.201803 0 0 1 0.201803 0.201803 a0.190592 0.190592 0 0 1 -0.246648
								 0.179381 Z" class="st14"/>
				</g>
				<g id="shape1058-57" v:mID="1058" v:groupContext="shape" transform="translate(6.77162,-7.92288)">
					<title>Sheet.1058</title>
					<path d="M5.81 61.03 L0.2 61.03 a0.201803 0.201803 0 0 1 -0.201803 -0.201803 a0.201803 0.201803 0 0 1 0.246648
								 -0.179381 L5.85 60.65 a0.201803 0.201803 0 0 1 0.201803 0.190592 a0.201803 0.201803 0 0 1 -0.246648
								 0.190592 Z" class="st14"/>
				</g>
				<g id="shape1059-59" v:mID="1059" v:groupContext="shape" transform="translate(6.77162,-6.79054)">
					<title>Sheet.1059</title>
					<path d="M5.81 61.03 L0.2 61.03 a0.201803 0.201803 0 0 1 -0.201803 -0.201803 a0.190592 0.190592 0 0 1 0.246648
								 -0.190592 L5.85 60.64 a0.190592 0.190592 0 0 1 0.201803 0.190592 a0.201803 0.201803 0 0 1 -0.246648
								 0.201803 Z" class="st14"/>
				</g>
				<g id="shape1060-61" v:mID="1060" v:groupContext="shape">
					<title>Sheet.1060</title>
					<path d="M0 58.77 a0.168169 0.168169 -180 0 0 0.100902 0.156958 L1.48 59.7 L3.83 61.01 a0.190592 0.190592 -180
								 0 0 0.25786 -0.0672677 L4.89 59.62 a0.190592 0.190592 -180 0 0 -0.0672677 -0.25786 L2.06 57.83 a0.179381
								 0.179381 0 0 1 -0.0896903 -0.156958 L1.97 45.54 a0.179381 0.179381 0 0 1 0.0896903 -0.156958 L4.82
								 43.85 a0.190592 0.190592 -180 0 0 0.0672677 -0.25786 L4.09 42.27 a0.190592 0.190592 -180 0 0 -0.25786
								 -0.0672677 L1.52 43.49 L0.1 44.29 a0.168169 0.168169 -180 0 0 -0.100902 0.156958 L0 58.77 Z"
							class="st1"/>
				</g>
				<g id="shape1061-63" v:mID="1061" v:groupContext="shape" transform="translate(0,-15.5802)">
					<title>Sheet.1061</title>
					<path d="M1.96 61.03 a0.145747 0.145747 0 0 1 0.078479 -0.0672677 L4.79 59.43 a0.190592 0.190592 -180 0 0 0.0672677
								 -0.25786 L4.07 57.85 a0.213014 0.213014 -180 0 0 -0.269071 -0.0672677 L1.56 59.07 L0.07 59.87 a0.190592
								 0.190592 -180 0 0 -0.0672677 0.0672677 L1.12 60.53 L1.96 61.03 Z" class="st5"/>
				</g>
				<g id="shape1062-65" v:mID="1062" v:groupContext="shape" transform="translate(0.0112113,-0.0700342)">
					<title>Sheet.1062</title>
					<path d="M4.78 59.44 L2.03 57.9 a0.224226 0.224226 0 0 1 -0.0896903 -0.0896903 L0 58.93 L0.06 58.93 L1.45 59.71
								 L3.79 61.02 a0.213014 0.213014 -180 0 0 0.269071 -0.0672677 L4.84 59.63 a0.190592 0.190592 -180
								 0 0 -0.0672677 -0.190592 Z" class="st5"/>
				</g>
				<g id="shape1063-67" v:mID="1063" v:groupContext="shape" transform="translate(14.1521,0)">
					<title>Sheet.1063</title>
					<path d="M4.91 58.77 a0.168169 0.168169 0 0 1 -0.100902 0.156958 L3.43 59.7 L1.07 61.01 a0.190592 0.190592 0
								 0 1 -0.25786 -0.0672677 L0.02 59.62 a0.190592 0.190592 0 0 1 0.0672677 -0.25786 L2.84 57.83 a0.179381
								 0.179381 -180 0 0 0.0896903 -0.156958 L2.93 45.54 a0.179381 0.179381 -180 0 0 -0.0896903 -0.156958
								 L0.09 43.85 a0.190592 0.190592 0 0 1 -0.0672677 -0.25786 L0.81 42.27 a0.190592 0.190592 0 0 1 0.25786
								 -0.0672677 L3.38 43.49 L4.81 44.29 a0.168169 0.168169 0 0 1 0.100902 0.156958 L4.91 58.77 Z"
							class="st1"/>
				</g>
				<g id="shape1064-69" v:mID="1064" v:groupContext="shape" transform="translate(14.1858,-15.5802)">
					<title>Sheet.1064</title>
					<path d="M2.91 61.03 a0.145747 0.145747 -180 0 0 -0.078479 -0.0672677 L0.09 59.43 a0.190592 0.190592 0 0 1 -0.0672677
								 -0.25786 L0.8 57.85 a0.213014 0.213014 0 0 1 0.269071 -0.0672677 L3.37 59.07 L4.81 59.87 a0.190592
								 0.190592 0 0 1 0.0672677 0.0672677 L3.75 60.53 L2.91 61.03 Z" class="st5"/>
				</g>
				<g id="shape1065-71" v:mID="1065" v:groupContext="shape" transform="translate(14.2408,-0.0700342)">
					<title>Sheet.1065</title>
					<path d="M0.03 59.44 L2.78 57.9 a0.224226 0.224226 -180 0 0 0.0896903 -0.0896903 L4.81 58.93 L3.42 59.71 L1.07
								 61.02 a0.213014 0.213014 0 0 1 -0.269071 -0.0672677 L0.02 59.63 a0.190592 0.190592 0 0 1 0.0112113
								 -0.190592 Z" class="st5"/>
				</g>
			</g>
		</g>
	</g>
</svg>
